<svg width="126" height="172" viewBox="0 0 126 172" fill="none" xmlns="http://www.w3.org/2000/svg">
<path d="M67.7348 15.5561C64.7045 10.3913 57.6338 13.4041 54.4773 15.5561C53.5303 15.5561 49.7424 15.5561 48.7955 21.0898C47.8485 26.6235 56.3712 31.2349 60.1591 32.1572C63.947 33.0795 62.053 36.7686 58.2652 36.7686C55.2348 36.7686 51.952 37.9983 50.6894 38.6132C49.1742 41.5645 24.8056 54.5994 12.8106 60.748L2.39394 62.5925L0.5 63.5148V66.2817H4.28788C4.60354 65.6668 5.61364 64.4371 7.12879 64.4371C8.64394 64.4371 8.39141 65.6668 8.07576 66.2817L6.18182 69.0485L7.12879 69.9708L8.07576 69.0485L15.6515 63.5148C15.6515 62.5925 52.5833 46.9137 54.4773 47.836C56.3712 48.7583 63.947 58.9034 60.1591 64.4371C57.1288 68.8641 54.4773 66.8965 53.5303 65.3594C35.5379 59.8257 30.803 72.7376 30.803 76.4268C30.803 79.3781 33.9596 84.4199 35.5379 86.5719H40.2727L44.0606 90.261H48.7955L49.7424 91.1833L57.3182 109.629V120.696C54.4773 125.308 54.4773 129.919 53.5303 130.841C52.7727 131.579 53.846 137.297 54.4773 140.064V150.209L48.7955 152.976V154.821L53.5303 160.355V164.044C53.5303 170.5 54.4773 169.577 55.4242 169.577C56.3712 169.577 59.2121 163.121 59.2121 161.277C59.2121 159.801 60.4747 145.905 61.1061 139.142C61.4217 138.22 62.053 136.191 62.053 135.453C62.053 134.715 62.6843 134.531 63 134.531L69.6288 151.132V159.432L70.5758 160.355V169.577H71.5227C73.0379 171.791 75.3106 170.5 76.2576 169.577V154.821L73.4167 148.365L72.4697 130.841L69.6288 123.463V116.085V109.629C71.9015 108.891 73.101 98.869 73.4167 93.9502H74.3636L80.0455 95.7947L81.9394 93.9502L84.7803 94.8724H86.6742L88.5682 92.1056C89.8308 92.413 92.1667 92.659 91.4091 91.1833C90.6515 89.7077 92.9874 87.4942 94.25 86.5719H97.0909V81.0382C97.0909 79.5625 95.8283 78.5788 95.197 78.2713L90.4621 77.3491L89.5152 75.5045L80.9924 74.5822L80.0455 73.6599H75.3106C74.3636 71.8154 78.1515 61.6702 80.9924 58.9034C83.2652 56.6899 82.5707 49.988 81.9394 46.9137C100.879 39.5355 118.24 16.7858 124.553 6.33326V4.48869V3.56641L125.5 2.64413V0.799561L123.606 1.72184V0.799561C121.333 0.799561 119.503 5.10355 118.871 7.25554C115.083 17.5851 100.879 28.1606 94.25 32.1572C72.4697 41.38 74.3636 38.6132 70.5758 34.924C66.7879 31.2349 71.5227 26.6235 73.4167 26.6235C74.9318 26.6235 74.6793 24.7789 74.3636 23.8566L73.4167 22.9344L72.4697 22.0121V20.1675L71.5227 19.2452H70.5758L67.7348 15.5561Z" stroke="#A1A1A1"/>
</svg>
